<?xml version="1.0" encoding="UTF-8" standalone="no"?>
<svg
   xmlns:dc="http://purl.org/dc/elements/1.1/"
   xmlns:cc="http://creativecommons.org/ns#"
   xmlns:rdf="http://www.w3.org/1999/02/22-rdf-syntax-ns#"
   xmlns:svg="http://www.w3.org/2000/svg"
   xmlns="http://www.w3.org/2000/svg"
   xmlns:sodipodi="http://sodipodi.sourceforge.net/DTD/sodipodi-0.dtd"
   xmlns:inkscape="http://www.inkscape.org/namespaces/inkscape"
   width="8.554"
   height="6.391"
   viewBox="0 0 8.554 6.391"
   version="1.1"
   id="svg6215"
   sodipodi:docname="quote.svg"
   inkscape:version="0.92.4 (5da689c313, 2019-01-14)">
  <metadata
     id="metadata6221">
    <rdf:RDF>
      <cc:Work
         rdf:about="">
        <dc:format>image/svg+xml</dc:format>
        <dc:type
           rdf:resource="http://purl.org/dc/dcmitype/StillImage" />
        <dc:title></dc:title>
      </cc:Work>
    </rdf:RDF>
  </metadata>
  <defs
     id="defs6219" />
  <sodipodi:namedview
     pagecolor="#ffffff"
     bordercolor="#666666"
     borderopacity="1"
     objecttolerance="10"
     gridtolerance="10"
     guidetolerance="10"
     inkscape:pageopacity="0"
     inkscape:pageshadow="2"
     inkscape:window-width="1280"
     inkscape:window-height="667"
     id="namedview6217"
     showgrid="false"
     inkscape:zoom="33.200842"
     inkscape:cx="4.277"
     inkscape:cy="3.1954999"
     inkscape:window-x="-8"
     inkscape:window-y="-8"
     inkscape:window-maximized="1"
     inkscape:current-layer="svg6215" />
  <path
     fill="#BB9B69"
     d="M3.781 0v.358c-1.374.47-2.06 1.261-2.06 2.372 0 .184.039.361.116.532.077.17.169.256.274.256.021 0 .067-.007.137-.021.099-.014.176-.021.232-.021.345 0 .641.142.888.424.247.283.37.619.37 1.007 0 .436-.151.792-.451 1.068-.297.277-.683.416-1.154.416-.591 0-1.095-.257-1.51-.772C.208 5.104 0 4.482 0 3.752c0-.9.387-1.733 1.162-2.5C1.936.486 2.809.068 3.781 0zm4.773 0v.358C7.181.821 6.495 1.612 6.495 2.73c0 .191.035.37.109.537.074.167.169.25.281.25.021 0 .063-.007.13-.021.099-.014.18-.021.243-.021.338 0 .634.143.88.429.25.287.373.621.373 1.002 0 .436-.147.792-.443 1.068-.296.278-.679.417-1.151.417-.598 0-1.105-.257-1.521-.772-.415-.515-.623-1.137-.623-1.867 0-.9.384-1.733 1.158-2.5C6.702.486 7.579.068 8.554 0z"
     id="path6213"
     style="fill:#7d7d7d;fill-opacity:1" />
</svg>
