<?xml version="1.0" encoding="utf-8"?>
<!-- Generator: Adobe Illustrator 16.0.0, SVG Export Plug-In . SVG Version: 6.00 Build 0)  -->
<!DOCTYPE svg PUBLIC "-//W3C//DTD SVG 1.1//EN" "http://www.w3.org/Graphics/SVG/1.1/DTD/svg11.dtd">
<svg version="1.1" id="Layer_1" xmlns="http://www.w3.org/2000/svg" xmlns:xlink="http://www.w3.org/1999/xlink" x="0px" y="0px"
	 width="35.825px" height="35.321px" viewBox="0 0 35.825 35.321" enable-background="new 0 0 35.825 35.321" xml:space="preserve">
<g>
	<path fill="#FFFFFF" enable-background="new    " d="M34.439,23.166v2.754H1.382v-2.754H34.439 M35.825,21.79H0v5.515h35.825V21.79
		L35.825,21.79z"/>
	<path fill="#FFFFFF" enable-background="new    " d="M17.918,14.903c11.729,0,15.616,2.533,16.521,3.301v3.586H1.382v-3.576
		C2.342,17.405,6.253,14.903,17.918,14.903 M17.918,13.526C2.761,13.526,0,17.658,0,17.658v5.508h35.825v-5.508
		C35.825,17.658,33.067,13.526,17.918,13.526L17.918,13.526z"/>
	<path fill="#FFFFFF" enable-background="new    " d="M5.514,27.305v2.754H1.382v-2.754H5.514 M6.894,25.92H0v5.52h6.894V25.92
		L6.894,25.92z"/>
	<path fill="#FFFFFF" enable-background="new    " d="M34.439,27.305v2.754h-4.128v-2.754H34.439 M35.825,25.92h-6.887v5.52h6.887
		V25.92L35.825,25.92z"/>
	<polygon fill="#FFFFFF" enable-background="new    " points="5.514,16.279 5.514,5.259 30.312,5.259 30.312,16.279 31.688,16.279 
		31.688,3.882 4.133,3.882 4.133,16.279 	"/>
	<path fill="#FFFFFF" enable-background="new    " d="M8.273,14.254v-0.728c0-0.759,0.617-1.38,1.372-1.38h4.131
		c0.764,0,1.382,0.622,1.382,1.38v0.048c0.441-0.016,0.916-0.016,1.377-0.027v-0.021c0-1.526-1.231-2.759-2.759-2.759H9.645
		c-1.521,0-2.751,1.233-2.751,2.759v0.991C7.322,14.426,7.79,14.338,8.273,14.254z"/>
	<path fill="#FFFFFF" enable-background="new    " d="M20.667,13.574v-0.048c0-0.759,0.615-1.38,1.381-1.38h4.129
		c0.762,0,1.381,0.622,1.381,1.38v0.728c0.488,0.084,0.945,0.172,1.381,0.264v-0.991c0-1.526-1.246-2.759-2.762-2.759h-4.129
		c-1.526,0-2.758,1.233-2.758,2.759v0.021C19.753,13.559,20.23,13.559,20.667,13.574z"/>
</g>
<g display="none">
	
		<path display="inline" fill-rule="evenodd" clip-rule="evenodd" fill="#FFFFFF" stroke="#FFFFFF" stroke-width="0.4" stroke-miterlimit="10" d="
		M8.636,35.121c0-0.373,0-0.678,0-1.013c0.369-0.026,0.709-0.05,1.084-0.075c0-0.707,0-1.377,0-2.092
		c-0.382-0.092-0.779-0.165-1.162-0.283c-3.866-1.189-6.185-3.777-6.912-7.756c-0.131-0.719-0.087-1.47-0.119-2.206
		c-0.009-0.228,0-0.455,0-0.724c-0.374-0.018-0.679-0.033-1.002-0.05c-0.147-0.316-0.061-0.639-0.063-1.013
		c0.342-0.018,0.661-0.033,1.038-0.053c0.01-0.249,0.025-0.475,0.025-0.7c0.002-4.915,0-9.83,0.002-14.744
		c0-0.906,0.146-1.77,0.674-2.543C3.096,0.56,4.723-0.09,6.287,0.324c1.744,0.461,2.688,1.88,2.805,3.213
		C9.12,3.864,9.159,4.19,9.197,4.555c1.146,0.24,2.089,0.801,2.709,1.824c0.458,0.756,0.628,1.574,0.515,2.514
		c-0.7,0.088-1.413,0-2.148,0.059c-0.022,0.36-0.042,0.68-0.064,1.028c-0.354,0-0.656,0-1.013,0c0-0.316,0-0.639,0-0.948
		C8.742,8.909,6.697,8.887,5.939,8.99c-0.025,0.309-0.052,0.627-0.08,0.986c-0.349,0-0.67,0-1.041,0
		C4.699,8.328,4.716,6.729,6.104,5.497c0.54-0.479,1.166-0.755,1.887-0.923c0.172-1.03-0.075-1.927-0.876-2.615
		C6.254,1.22,5.256,1.081,4.231,1.535C3.275,1.96,2.723,2.731,2.655,3.799c-0.022,0.368-0.01,0.738-0.01,1.107
		c-0.001,4.759-0.001,9.518-0.001,14.277c0,0.209,0,0.418,0,0.664c1.464,0,2.87,0,4.31,0c0.019-0.324,0.035-0.626,0.057-0.993
		c0.314-0.017,0.614-0.033,0.983-0.054c0.023,0.358,0.042,0.677,0.061,0.986c0.511,0.137,2.846,0.133,3.299,0.001
		c-0.017-0.315-0.034-0.635-0.052-0.983c0.408,0,0.749,0,1.144,0c0,0.328,0,0.665,0,1.042c2.59,0,5.125,0,7.694,0
		c0.137-0.519,0.41-0.964,0.771-1.376c0.458-0.52,1.049-0.713,1.691-0.791c0.38-0.046,0.771-0.009,1.157-0.009
		c1.9,0,3.801,0.02,5.701-0.006c1.538-0.02,2.534,1.045,2.735,2.21c1.043,0,2.101,0,3.189,0c0,0.37,0,0.673,0,1.042
		c-0.317,0.016-0.637,0.031-1.016,0.049c-0.011,0.229-0.031,0.434-0.031,0.639c-0.005,1.049-0.019,2.098-0.286,3.121
		c-0.87,3.329-2.938,5.569-6.162,6.752c-0.219,0.08-0.442,0.147-0.705,0.234c0,0.751,0,1.516,0,2.319
		c0.359,0.025,0.701,0.051,1.079,0.078c0,0.338,0,0.654,0,1.005c-1.225,0-2.42,0-3.67,0c-0.366-1.003-0.737-2.018-1.121-3.069
		c-3.331,0-6.663,0-10.055,0c-0.366,1.006-0.742,2.036-1.12,3.076C11.07,35.121,9.875,35.121,8.636,35.121z M20.128,21.022
		c-0.662-0.123-17.021-0.103-17.476,0.021c0,0.609-0.002,1.229,0,1.849c0.002,1.025,0.227,2.009,0.655,2.93
		c1.544,3.315,4.182,5.045,7.816,5.1c4.545,0.067,9.092,0.02,13.638,0.011c0.484-0.001,0.976-0.03,1.449-0.122
		c3.09-0.604,5.257-2.363,6.47-5.274c0.599-1.438,0.596-2.949,0.506-4.469c-0.002-0.029-0.046-0.057-0.068-0.084
		c-1.78,0-3.558,0-5.392,0c0,1.467,0,2.895,0,4.346c-2.551,0-5.044,0-7.599,0C20.128,23.865,20.128,22.438,20.128,21.022z
		 M27.183,18.728c-0.524,0-0.929-0.001-1.336,0c-0.95,0.003-1.9,0.023-2.852,0.003c-0.932-0.02-1.778,0.738-1.789,1.68
		c-0.016,1.185-0.006,2.369-0.002,3.554c0,0.092,0.02,0.185,0.038,0.336c1.816-0.007,3.606,0.032,5.427-0.022
		c0-1.274,0.009-2.477-0.003-3.68C26.659,19.968,26.744,19.368,27.183,18.728z M11.268,7.848C11.083,6.52,9.938,5.605,8.573,5.634
		C7.236,5.661,6.112,6.618,6,7.848C7.744,7.848,9.484,7.848,11.268,7.848z M30.983,19.863c-0.195-0.684-0.892-1.157-1.609-1.145
		c-0.696,0.013-1.312,0.488-1.465,1.145C28.92,19.863,29.926,19.863,30.983,19.863z M24.646,32.052
		c0.247,0.693,0.478,1.336,0.72,2.014c0.258-0.015,0.473-0.027,0.682-0.04c0-0.742,0-1.408,0-2.097
		C25.574,31.97,25.141,32.008,24.646,32.052z M10.848,34.039c0.256,0,0.46,0,0.698,0c0.233-0.665,0.461-1.31,0.703-1.996
		c-0.509,0-0.941,0-1.401,0C10.848,32.713,10.848,33.345,10.848,34.039z"/>
	
		<path display="inline" fill-rule="evenodd" clip-rule="evenodd" fill="#FFFFFF" stroke="#FFFFFF" stroke-width="0.4" stroke-miterlimit="10" d="
		M5.865,15.537c0,0.361,0,0.679,0,1.028c-0.351,0-0.668,0-1.034,0c0-0.348,0-0.665,0-1.028C5.167,15.537,5.5,15.537,5.865,15.537z"
		/>
	
		<path display="inline" fill-rule="evenodd" clip-rule="evenodd" fill="#FFFFFF" stroke="#FFFFFF" stroke-width="0.4" stroke-miterlimit="10" d="
		M4.872,17.708c0.318,0,0.637,0,0.999,0c0,0.361,0,0.695,0,1.106c-0.327-0.028-0.656-0.057-1.012-0.087
		C4.763,18.382,4.663,18.06,4.872,17.708z"/>
	
		<path display="inline" fill-rule="evenodd" clip-rule="evenodd" fill="#FFFFFF" stroke="#FFFFFF" stroke-width="0.4" stroke-miterlimit="10" d="
		M4.811,12.154c0-0.346,0-0.646,0-0.979c0.361,0,0.692,0,1.057,0c0,0.334,0,0.633,0,0.979C5.523,12.154,5.19,12.154,4.811,12.154z"
		/>
	
		<path display="inline" fill-rule="evenodd" clip-rule="evenodd" fill="#FFFFFF" stroke="#FFFFFF" stroke-width="0.4" stroke-miterlimit="10" d="
		M7.006,13.29c0-0.354,0-0.671,0-1.036c0.322,0,0.634,0,0.994,0c0,0.34,0,0.67,0,1.036C7.666,13.29,7.351,13.29,7.006,13.29z"/>
	
		<path display="inline" fill-rule="evenodd" clip-rule="evenodd" fill="#FFFFFF" stroke="#FFFFFF" stroke-width="0.4" stroke-miterlimit="10" d="
		M12.404,13.29c-0.327,0-0.641,0-0.99,0c0-0.351,0-0.669,0-1.034c0.32,0,0.632,0,0.99,0C12.404,12.593,12.404,12.923,12.404,13.29z"
		/>
	
		<path display="inline" fill-rule="evenodd" clip-rule="evenodd" fill="#FFFFFF" stroke="#FFFFFF" stroke-width="0.4" stroke-miterlimit="10" d="
		M4.782,13.373c0.411,0,0.73,0,1.083,0c0,0.333,0,0.632,0,0.981c-0.333,0-0.665,0-1.049,0c-0.01-0.153-0.026-0.319-0.032-0.485
		C4.778,13.72,4.782,13.57,4.782,13.373z"/>
	
		<path display="inline" fill-rule="evenodd" clip-rule="evenodd" fill="#FFFFFF" stroke="#FFFFFF" stroke-width="0.4" stroke-miterlimit="10" d="
		M9.203,16.573c0-0.367,0-0.674,0-1.032c0.326,0,0.642,0,1,0c0,0.336,0,0.671,0,1.032C9.875,16.573,9.572,16.573,9.203,16.573z"/>
	
		<path display="inline" fill-rule="evenodd" clip-rule="evenodd" fill="#FFFFFF" stroke="#FFFFFF" stroke-width="0.4" stroke-miterlimit="10" d="
		M11.432,16.632c0.346,0,0.652,0,1,0c0,0.332,0,0.651,0,1.007c-0.355,0-0.71,0-1.058,0C11.264,17.087,11.264,17.087,11.432,16.632z"
		/>
	
		<path display="inline" fill-rule="evenodd" clip-rule="evenodd" fill="#FFFFFF" stroke="#FFFFFF" stroke-width="0.4" stroke-miterlimit="10" d="
		M7.96,17.646c-0.319,0-0.603,0-0.945,0c-0.023-0.322-0.045-0.62-0.07-0.979c0.393,0,0.726,0,1.063,0
		C8.19,16.995,8.157,17.302,7.96,17.646z"/>
	
		<path display="inline" fill-rule="evenodd" clip-rule="evenodd" fill="#FFFFFF" stroke="#FFFFFF" stroke-width="0.4" stroke-miterlimit="10" d="
		M9.212,18.853c0-0.438,0-0.778,0-1.157c0.333,0,0.647,0,0.996,0c0,0.357,0,0.673,0,1.019C9.887,18.758,9.589,18.8,9.212,18.853z"/>
	
		<path display="inline" fill-rule="evenodd" clip-rule="evenodd" fill="#FFFFFF" stroke="#FFFFFF" stroke-width="0.4" stroke-miterlimit="10" d="
		M7.003,11.103c0-0.343,0-0.646,0-0.996c0.333,0,0.646,0,1.002,0c0,0.331,0,0.646,0,0.996C7.676,11.103,7.373,11.103,7.003,11.103z"
		/>
	
		<path display="inline" fill-rule="evenodd" clip-rule="evenodd" fill="#FFFFFF" stroke="#FFFFFF" stroke-width="0.4" stroke-miterlimit="10" d="
		M12.396,11.113c-0.337,0-0.622,0-0.961,0c0-0.333,0-0.645,0-1.006c0.311,0,0.624,0,0.961,0
		C12.396,10.452,12.396,10.781,12.396,11.113z"/>
	
		<path display="inline" fill-rule="evenodd" clip-rule="evenodd" fill="#FFFFFF" stroke="#FFFFFF" stroke-width="0.4" stroke-miterlimit="10" d="
		M9.235,11.154c0.34,0,0.626,0,0.961,0c0,0.331,0,0.646,0,1.004c-0.31,0-0.625,0-0.961,0C9.235,11.819,9.235,11.491,9.235,11.154z"
		/>
	
		<path display="inline" fill-rule="evenodd" clip-rule="evenodd" fill="#FFFFFF" stroke="#FFFFFF" stroke-width="0.4" stroke-miterlimit="10" d="
		M9.21,14.36c0-0.346,0-0.647,0-0.984c0.328,0,0.63,0,0.955,0c0.152,0.298,0.056,0.621,0.06,0.984
		C9.893,14.36,9.578,14.36,9.21,14.36z"/>
	
		<path display="inline" fill-rule="evenodd" clip-rule="evenodd" fill="#FFFFFF" stroke="#FFFFFF" stroke-width="0.4" stroke-miterlimit="10" d="
		M7.011,14.433c0.34,0,0.64,0,0.988,0c0,0.333,0,0.646,0,1.002c-0.324,0-0.638,0-0.988,0C7.011,15.104,7.011,14.803,7.011,14.433z"
		/>
	
		<path display="inline" fill-rule="evenodd" clip-rule="evenodd" fill="#FFFFFF" stroke="#FFFFFF" stroke-width="0.4" stroke-miterlimit="10" d="
		M12.429,14.46c0,0.341,0,0.627,0,0.966c-0.332,0-0.644,0-1.004,0c0-0.313,0-0.628,0-0.966C11.762,14.46,12.091,14.46,12.429,14.46z
		"/>
</g>
<path display="none" fill-rule="evenodd" clip-rule="evenodd" fill="#FFFFFF" d="M24.335,2.897c0.248-0.247,0.348-0.347,0.437-0.436
	c2.672,0,5.333,0,7.958,0c0.135,0.135,0.234,0.235,0.36,0.361c0,9.862,0,19.749,0,29.715c-0.219,0.097-0.448,0.238-0.698,0.297
	c-0.223,0.052-0.467,0.011-0.701,0.011c-9.525,0-19.049,0-28.57,0c-0.136-0.136-0.269-0.27-0.385-0.385c0-2.678,0-5.339,0-7.962
	c0.137-0.138,0.237-0.237,0.385-0.385c2.143,0,4.335,0,6.478,0c0.148-0.148,0.248-0.248,0.396-0.396c0-2.143,0-4.334,0-6.478
	c0.182-0.182,0.314-0.314,0.447-0.447c2.158,0,4.316,0,6.57,0c0.132-2.22-0.012-4.45,0.071-6.605
	c0.251-0.466,0.622-0.443,1.005-0.441c1.967,0.008,3.934,0.004,5.876,0.004c0.124-0.125,0.224-0.225,0.372-0.374
	C24.335,7.234,24.335,5.042,24.335,2.897z M4.412,31.108c9.072,0,18.019,0,26.945,0c0-9.027,0-18.009,0-26.946
	c-1.886,0-3.702,0-5.565,0c0,2.238,0,4.43,0,6.573c-0.146,0.148-0.246,0.247-0.443,0.444c-2.127,0-4.354,0-6.586,0
	c0,2.253,0,4.408,0,6.223c-0.335,0.531-0.532,0.846-0.697,1.111c-2.263,0-4.412,0-6.609,0c0,2.223,0,4.415,0,6.558
	c-0.18,0.182-0.313,0.314-0.494,0.495c-2.144,0-4.335,0-6.55,0C4.412,27.43,4.412,29.245,4.412,31.108z"/>
<g display="none">
	<polygon display="inline" fill="#FFFFFF" points="23.257,2.468 23.257,4.438 29.745,4.438 20.594,13.59 21.985,14.985 
		31.134,5.826 31.134,12.316 33.103,12.316 33.103,2.468 	"/>
	<polygon display="inline" fill="#FFFFFF" points="2.722,12.316 4.69,12.316 4.69,5.826 13.84,14.985 15.231,13.59 6.079,4.438 
		12.574,4.438 12.574,2.468 2.722,2.468 	"/>
	<polygon display="inline" fill="#FFFFFF" points="12.574,32.854 12.574,30.893 6.079,30.893 15.231,21.736 13.84,20.331 
		4.69,29.49 4.69,23.002 2.722,23.002 2.722,32.854 	"/>
	<polygon display="inline" fill="#FFFFFF" points="33.103,23.002 31.134,23.002 31.134,29.49 21.985,20.331 20.594,21.736 
		29.745,30.893 23.257,30.893 23.257,32.854 33.103,32.854 	"/>
</g>
</svg>
